<?xml version="1.0" standalone="no"?>
<!DOCTYPE svg PUBLIC "-//W3C//DTD SVG 20010904//EN"
 "http://www.w3.org/TR/2001/REC-SVG-20010904/DTD/svg10.dtd">
<svg version="1.0" xmlns="http://www.w3.org/2000/svg"
 width="300.000000pt" height="200.000000pt" viewBox="0 0 300.000000 200.000000"
 preserveAspectRatio="xMidYMid meet">

<g transform="translate(0.000000,200.000000) scale(0.100000,-0.100000)"
fill="#000000" stroke="none">
<path d="M1100 1045 c0 -157 1 -165 20 -165 10 0 23 7 28 16 9 16 11 16 33 0
44 -31 114 -11 137 39 26 56 6 141 -37 165 -28 15 -73 12 -99 -6 l-22 -15 0
65 0 66 -30 0 -30 0 0 -165z m154 -1 c21 -20 20 -73 -1 -96 -34 -38 -93 -9
-93 45 0 57 58 88 94 51z"/>
<path d="M1393 1203 c-7 -2 -13 -16 -13 -29 0 -19 5 -24 25 -24 30 0 43 24 25
45 -13 16 -17 17 -37 8z"/>
<path d="M1500 1044 l0 -165 28 3 27 3 3 163 2 162 -30 0 -30 0 0 -166z"/>
<path d="M1622 1198 c-18 -18 -15 -36 7 -48 28 -14 55 13 41 41 -12 22 -30 25
-48 7z"/>
<path d="M2523 1203 c-18 -6 -16 -50 1 -56 8 -3 22 1 33 8 28 21 -1 62 -34 48z"/>
<path d="M660 1135 c0 -16 -6 -25 -15 -25 -9 0 -15 -9 -15 -25 0 -16 6 -25 15
-25 12 0 15 -13 15 -55 0 -89 28 -124 98 -125 17 0 22 6 22 24 0 18 -7 25 -30
30 -29 5 -30 7 -30 66 l0 60 30 0 c25 0 30 4 30 25 0 21 -5 25 -30 25 -25 0
-30 4 -30 25 0 21 -5 25 -30 25 -25 0 -30 -4 -30 -25z"/>
<path d="M1740 1135 c0 -16 -6 -25 -15 -25 -9 0 -15 -9 -15 -25 0 -14 6 -25
14 -25 9 0 15 -20 19 -67 4 -57 9 -71 32 -91 36 -31 88 -28 93 6 3 17 -1 22
-20 22 -36 0 -48 19 -48 77 0 52 0 53 30 53 25 0 30 4 30 25 0 21 -5 25 -30
25 -25 0 -30 4 -30 25 0 21 -5 25 -30 25 -25 0 -30 -4 -30 -25z"/>
<path d="M452 1087 c-42 -44 -22 -84 53 -109 53 -17 53 -42 1 -46 -21 -2 -43
1 -49 7 -18 18 -27 13 -27 -14 0 -53 128 -62 162 -11 14 20 8 63 -10 79 -10 9
-33 20 -51 23 -36 8 -52 31 -30 45 13 9 38 6 73 -7 12 -5 16 0 16 19 0 29 -16
37 -74 37 -32 0 -48 -6 -64 -23z"/>
<path d="M843 1075 c-33 -33 -35 -38 -31 -87 9 -84 73 -128 143 -96 14 6 25
16 26 22 0 6 4 1 9 -11 6 -13 18 -23 30 -23 19 0 20 6 20 115 l0 115 -25 0
c-16 0 -25 -6 -25 -16 0 -14 -2 -14 -22 0 -39 28 -86 20 -125 -19z m121 -31
c21 -20 20 -73 -1 -96 -34 -38 -93 -9 -93 45 0 57 58 88 94 51z"/>
<path d="M1380 994 l0 -115 28 3 27 3 3 113 3 112 -31 0 -30 0 0 -116z"/>
<path d="M1614 1097 c-2 -7 -3 -58 -2 -113 l3 -99 28 -3 27 -3 0 115 0 116
-25 0 c-14 0 -28 -6 -31 -13z"/>
<path d="M1890 1101 c0 -5 18 -55 40 -111 29 -77 37 -107 30 -121 -6 -9 -14
-29 -20 -43 -9 -24 -7 -26 19 -26 30 0 32 5 148 298 3 8 -5 12 -25 12 -29 0
-32 -4 -53 -67 -12 -38 -24 -72 -27 -77 -3 -5 -17 24 -31 65 -23 66 -29 74
-53 77 -16 2 -28 -1 -28 -7z"/>
<path d="M2267 1099 c-25 -15 -47 -63 -47 -104 0 -91 88 -146 153 -95 25 20
25 20 30 0 3 -12 14 -20 26 -20 20 0 21 5 21 115 l0 115 -25 0 c-16 0 -25 -6
-25 -15 0 -8 -4 -15 -9 -15 -5 0 -14 7 -21 15 -14 17 -76 20 -103 4z m105 -56
c22 -20 23 -70 1 -95 -35 -39 -93 -9 -93 48 0 57 52 84 92 47z"/>
<path d="M2510 994 l0 -115 28 3 27 3 3 113 3 112 -31 0 -30 0 0 -116z"/>
<path d="M2121 937 c-25 -31 13 -66 46 -42 14 11 16 18 7 32 -14 23 -38 28
-53 10z"/>
</g>
</svg>
